<svg width="86" height="86" viewBox="0 0 86 86" fill="none" xmlns="http://www.w3.org/2000/svg">
<rect width="86" height="86" fill="white"/>
<path d="M17 20.24C20.4235 26.3534 25.3187 30.4055 30.1569 35.3444C33.6279 38.8878 37.0191 42.8837 40.176 46.7268C42.4846 49.5374 44.691 52.384 46.603 55.4909C47.1127 56.3192 47.7731 57.098 48.464 57.7198C49.6867 58.8202 51.4512 53.8234 51.6666 53.0456C52.6411 49.5267 53.0536 45.6117 53.8089 42.0094C54.8091 37.2396 55.3387 32.2077 56.8168 27.5542C58.2472 23.0512 61.101 15.4579 65.8838 13.2504C67.392 12.5543 67.8416 13.3876 68.4157 14.7868C70.1135 18.9252 63.5894 24.465 61.2746 26.7535C50.2226 37.6799 40.287 49.643 29.2047 60.5329C25.8534 63.826 21.9663 66.9346 19.5102 71.0065C19.0867 71.7086 18.927 72.1819 18.1685 72.4347" stroke="black" stroke-width="3" stroke-linecap="round"/>
<path d="M62.573 54.5171V56.4647" stroke="black" stroke-width="3" stroke-linecap="round"/>
</svg>
